<?xml version="1.0" standalone="no"?>
<!DOCTYPE svg PUBLIC "-//W3C//DTD SVG 20010904//EN"
 "http://www.w3.org/TR/2001/REC-SVG-20010904/DTD/svg10.dtd">
<svg version="1.0" xmlns="http://www.w3.org/2000/svg"
 width="300.000000pt" height="179.000000pt" viewBox="0 0 300.000000 179.000000"
 preserveAspectRatio="xMidYMid meet">
<metadata>
Created by potrace 1.10, written by Peter Selinger 2001-2011
</metadata>
<g transform="translate(0.000000,179.000000) scale(0.050000,-0.050000)"
fill="#0a483b" stroke="none">
<path d="M0 2680 l0 -900 890 0 890 0 0 -890 0 -890 895 5 895 5 5 895 5 895
-890 0 -890 0 0 890 0 890 -900 0 -900 0 0 -900z m1470 620 c0 -96 -87 -149
-117 -71 -9 25 -2 29 38 19 52 -13 64 9 25 48 -19 19 -19 24 0 24 13 0 24 10
24 21 0 13 -17 16 -40 9 -29 -9 -40 -4 -40 20 0 24 15 31 55 26 51 -6 55 -13
55 -96z m170 80 c0 -11 -20 -21 -45 -21 l-45 -2 45 -18 c58 -23 77 -71 45
-109 -32 -39 -88 -38 -121 1 -23 27 -20 31 22 25 27 -3 49 3 49 14 0 11 -16
19 -35 18 -25 -1 -35 14 -35 55 0 50 7 57 60 57 33 0 60 -9 60 -20z m-668
-305 c93 -102 96 -211 7 -299 -58 -58 -56 -94 6 -96 37 0 95 -135 95 -220 0
-224 -103 -280 -509 -280 l-291 0 0 491 0 492 312 -7 311 -6 69 -75z m618
-264 c0 -69 -7 -80 -60 -97 -133 -43 -150 -78 -150 -317 l0 -217 -90 0 -90 0
0 350 0 350 81 0 c49 0 84 -10 91 -27 8 -22 24 -20 84 10 105 54 134 42 134
-52z m1650 -1191 c0 -11 -20 -21 -45 -21 l-45 -2 43 -17 c56 -23 72 -51 57
-101 -15 -46 -110 -49 -125 -4 -5 15 6 23 28 20 20 -3 37 4 37 15 0 11 -16 18
-35 15 -27 -3 -35 10 -35 55 0 53 7 60 60 60 33 0 60 -9 60 -20z m165 -10 c-3
-11 -17 -21 -30 -22 -57 -5 -62 -13 -15 -26 69 -19 71 -109 2 -119 -75 -10
-117 114 -57 174 28 28 108 23 100 -7z m-849 -261 c149 -88 162 -305 23 -379
l-46 -25 63 -33 c166 -86 165 -362 -1 -463 -55 -33 -110 -40 -370 -46 l-305
-7 0 505 0 505 287 -10 c231 -8 299 -17 349 -47z m808 -307 c55 -61 56 -68 56
-307 0 -135 6 -265 13 -290 13 -51 -161 -72 -178 -21 -5 17 -30 14 -92 -10
-244 -98 -461 78 -353 286 39 76 87 101 270 140 113 25 152 42 157 69 17 86
-205 106 -237 21 -22 -59 -180 -77 -180 -21 0 196 400 294 544 133z"/>
<path d="M480 2893 l0 -133 109 0 c179 0 250 40 251 143 0 78 -45 102 -211
113 l-149 9 0 -132z"/>
<path d="M480 2480 l0 -140 156 0 c195 0 244 28 244 140 0 112 -49 140 -244
140 l-156 0 0 -140z"/>
<path d="M2100 1120 l0 -120 157 0 c170 0 223 28 223 117 0 87 -66 123 -230
123 l-150 0 0 -120z"/>
<path d="M2109 836 c-6 -17 -8 -83 -5 -148 l6 -118 110 -6 c259 -15 401 118
261 245 -54 49 -355 71 -372 27z"/>
<path d="M3103 711 c-149 -36 -186 -102 -93 -163 56 -36 137 -25 195 27 34 30
51 167 20 163 -8 -1 -63 -13 -122 -27z"/>
<path d="M3347 3131 c-88 -38 -97 -64 -32 -95 l55 -26 5 -355 c6 -337 4 -355
-35 -379 -87 -55 -37 -96 120 -96 160 0 199 32 119 97 -35 28 -40 52 -35 163
l6 130 156 -195 c149 -186 159 -195 233 -195 146 0 196 63 83 102 -58 20 -302
303 -302 349 0 34 83 104 165 138 139 58 66 128 -109 105 -104 -14 -129 -38
-83 -84 33 -33 32 -38 -39 -103 -111 -101 -114 -96 -114 203 l0 270 -65 -1
c-36 0 -93 -13 -128 -28z"/>
<path d="M4190 3108 c-43 -44 -31 -90 33 -126 93 -53 206 61 133 134 -34 34
-128 30 -166 -8z"/>
<path d="M5910 2895 c-22 -13 -128 -23 -237 -24 l-196 -1 -69 -75 c-77 -85
-93 -210 -37 -291 29 -41 28 -48 -10 -97 -49 -62 -53 -132 -10 -168 27 -22 26
-30 -10 -68 -124 -132 100 -301 343 -260 415 69 422 405 8 393 -213 -5 -267
12 -242 80 9 22 39 26 127 20 216 -16 364 116 335 297 -7 43 -3 82 8 89 70 43
60 144 -10 105z m-218 -110 c114 -76 60 -305 -71 -305 -105 0 -161 174 -90
276 31 44 115 59 161 29z m147 -643 c49 -92 -143 -175 -307 -134 -67 16 -101
79 -72 132 31 59 348 60 379 2z"/>
<path d="M2038 2835 c-259 -175 -212 -576 77 -654 138 -37 328 32 386 141 31
58 -28 71 -91 21 -148 -116 -370 -23 -370 155 0 38 14 41 235 46 l235 6 -4 84
c-9 217 -274 331 -468 201z m273 -84 c96 -96 69 -131 -100 -131 -167 0 -186
13 -142 98 50 97 163 112 242 33z"/>
<path d="M2707 2841 c-64 -39 -100 -104 -77 -141 24 -39 103 -19 160 40 100
104 211 71 217 -64 3 -59 -2 -66 -47 -62 -221 18 -380 -78 -380 -229 0 -186
205 -279 377 -171 43 27 51 26 94 -15 45 -42 52 -43 123 -16 89 33 106 79 42
107 -43 19 -47 34 -56 257 -10 229 -12 238 -66 285 -75 64 -289 69 -387 9z
m299 -418 c-8 -186 -253 -209 -253 -23 0 87 52 123 167 116 l90 -6 -4 -87z"/>
<path d="M4187 2852 c-87 -39 -98 -68 -38 -95 71 -33 80 -438 11 -482 -91 -57
-36 -95 138 -95 146 0 179 29 109 94 -51 48 -51 49 -44 322 l7 274 -60 5 c-33
2 -88 -8 -123 -23z"/>
<path d="M4565 2850 c-66 -29 -90 -90 -35 -90 79 0 105 -411 30 -475 -81 -69
-40 -105 120 -105 149 0 225 57 120 90 -67 21 -60 372 9 441 123 123 212 41
226 -209 10 -173 9 -180 -42 -227 -71 -67 -37 -95 117 -95 147 0 231 58 130
90 -36 11 -40 30 -40 186 -1 325 -57 424 -238 424 -70 0 -105 -11 -132 -40
-20 -22 -43 -40 -51 -40 -8 0 -19 18 -25 40 -12 48 -92 52 -189 10z"/>
<path d="M4125 1350 c-66 -28 -90 -90 -36 -90 37 0 71 -62 71 -129 0 -58 -2
-58 -105 -30 -285 79 -514 -273 -364 -562 67 -131 254 -178 384 -99 81 49 85
49 85 0 0 -50 66 -53 180 -8 92 37 101 61 30 88 -56 21 -58 51 -50 605 l4 255
-67 -1 c-37 0 -96 -13 -132 -29z m-14 -379 c98 -98 59 -399 -56 -440 -137 -47
-243 79 -230 274 13 198 165 286 286 166z"/>
</g>
</svg>
